<svg width="170" height="171" viewBox="0 0 170 171" fill="none" xmlns="http://www.w3.org/2000/svg">
<path d="M37.3 0C16.7 0 0 16.7 0 37.3V132.9C0 153.5 16.7 170.2 37.3 170.2H132.7C153.3 170.2 170 153.5 170 132.9V37.3C170 16.7 153.3 0 132.7 0H37.3Z" fill="#FEDA03"/>
<path d="M117.6 84.9C122.9 83.5 127.7 79.4 127.7 71.3C127.7 57.7 116.4 54.5 101.8 54.5H43.8999V115.7H68.2999V94.9H97.1999C101.7 94.9 104.3 96.7 104.3 101.1V115.6H128.7V100.3C128.6 92.1 124 86.8 117.6 84.9Z" fill="black"/>
<path d="M101.2 71.6H68.2998V80H101.2H101.3C103.6 80 105.4 78.1 105.4 75.8C105.4 73.5 103.6 71.6 101.3 71.6C101.3 71.6 101.3 71.6 101.2 71.6Z" fill="#FEDA03"/>
</svg>
