<svg width="371" height="87" viewBox="0 0 371 87" fill="none" xmlns="http://www.w3.org/2000/svg">
<path d="M278 56.6C278 74.5 267.7 86.8 250.2 86.8C243 86.8 236.4 83.8 233.5 79.1V85.8H218.9V3.69998H233.5V33.8C236.9 29.4 243.1 26.4 250.4 26.4C267.7 26.4 278 38.7 278 56.6ZM232.6 56.6C232.6 67.2 238.7 74.1 248.1 74.1C257.4 74.1 263.5 67.1 263.5 56.6C263.5 46 257.4 39.1 248.1 39.1C238.7 39.1 232.6 46 232.6 56.6ZM70 85.8L52.2 49.5C60.2 45.6 64.9 37.8 64.9 28.6C64.9 14 54.6 4.59998 38.7 4.59998H0L0.0999908 85.8H15.8V52.5H36L51.6 85.8H70ZM15.9 18.2H36.3C44.4 18.2 49 22.1 49 28.6C49 35.1 44.4 38.9 36.3 38.9H15.9V18.2ZM117.9 27.4H132.5V85.8H117.9V79.1C115 83.7 108.5 86.8 101.2 86.8C83.7 86.8 73.4 74.5 73.4 56.6C73.4 38.7 83.7 26.4 101 26.4C108.3 26.4 114.5 29.4 117.9 33.8V27.4ZM87.9 56.6C87.9 67.2 94 74.1 103.3 74.1C112.7 74.1 118.8 67.1 118.8 56.6C118.8 46 112.7 39.1 103.3 39.1C94 39.1 87.9 46 87.9 56.6ZM184.1 27.4L183.2 41.6C181.1 40.7 178.3 40.2 175.8 40.2C167.6 40.2 160.2 47 160.2 64.4V85.8H145.6V27.3H160.2V38C163.1 31.4 170.7 26.4 177.8 26.4C179.8 26.4 182.3 26.8 184.1 27.4ZM206 85.8H191.4V27.3H206V85.8ZM287.9 85.8H302.5V3.69998H287.9V85.8ZM370.4 54.6C370.4 41 360.8 26.4 341.1 26.4C321.8 26.4 312.3 41.4 312.3 56.6C312.3 71.8 322.6 86.8 341.9 86.8C355.6 86.8 365.7 80.3 369 69.3L355.3 65.6C353.8 71.3 348.9 74.5 342.1 74.5C333.8 74.5 328.1 69.3 326.8 60.5H370.1C370.3 59.3 370.4 56.7 370.4 54.6ZM327.3 49.7C328.9 41.8 334 37.5 341.2 37.5C349.7 37.5 354.2 42.7 354.9 49.7H327.3ZM189.7 6.69998C189.7 2.99998 192.7 0 196.4 0H201.2C204.9 0 207.9 2.99998 207.9 6.69998V11.5C207.9 15.2 204.9 18.2 201.2 18.2H196.4C192.7 18.2 189.7 15.2 189.7 11.5V6.69998Z" fill="white"/>
</svg>
